<?xml version="1.0" encoding="UTF-8" standalone="no"?>
<!DOCTYPE svg PUBLIC "-//W3C//DTD SVG 1.1//EN" "http://www.w3.org/Graphics/SVG/1.1/DTD/svg11.dtd">
<!-- Created with Vectornator (http://vectornator.io/) -->
<svg height="100%" stroke-miterlimit="10" style="fill-rule:nonzero;clip-rule:evenodd;stroke-linecap:round;stroke-linejoin:round;" version="1.1" viewBox="0 0 500 500" width="100%" xml:space="preserve" xmlns="http://www.w3.org/2000/svg" xmlns:vectornator="http://vectornator.io" xmlns:xlink="http://www.w3.org/1999/xlink">
<defs/>
<path d="M0 0L500 0L500 500L0 500L0 0Z" fill="#ffffff" fill-rule="nonzero" opacity="1" stroke="none"/>
<g id="Untitled" vectornator:layerName="Untitled">
<path d="M0 0L500 0L500 0L500 500L500 500L0 500L0 500L0 0L0 0Z" fill="#b3528a" fill-rule="nonzero" opacity="1" stroke="none" vectornator:layerName="rect"/>
<path d="M250 316.874C263.436 316.874 275.803 313.261 287.101 306.034C298.4 298.807 306.594 288.984 311.683 276.566L188.317 276.566C193.61 288.984 201.855 298.807 213.051 306.034C224.248 313.261 236.564 316.874 250 316.874ZM195.646 233.816L209.387 220.075L223.128 233.816L234.121 222.823L209.387 198.089L184.653 222.823L195.646 233.816ZM277.177 233.816L290.918 220.075L304.66 233.816L315.653 222.823L290.918 198.089L266.184 222.823L277.177 233.816ZM250 372.144C233.103 372.144 217.225 368.938 202.364 362.525C187.503 356.113 174.576 347.41 163.583 336.417C152.59 325.424 143.887 312.497 137.475 297.636C131.062 282.775 127.856 266.897 127.856 250C127.856 233.103 131.062 217.225 137.475 202.364C143.887 187.503 152.59 174.576 163.583 163.583C174.576 152.59 187.503 143.887 202.364 137.475C217.225 131.062 233.103 127.856 250 127.856C266.897 127.856 282.775 131.062 297.636 137.475C312.497 143.887 325.424 152.59 336.417 163.583C347.41 174.576 356.113 187.503 362.525 202.364C368.938 217.225 372.144 233.103 372.144 250C372.144 266.897 368.938 282.775 362.525 297.636C356.113 312.497 347.41 325.424 336.417 336.417C325.424 347.41 312.497 356.113 297.636 362.525C282.775 368.938 266.897 372.144 250 372.144ZM250 353.823C278.908 353.823 303.438 343.746 323.592 323.592C343.746 303.438 353.823 278.908 353.823 250C353.823 221.092 343.746 196.562 323.592 176.408C303.438 156.254 278.908 146.177 250 146.177C221.092 146.177 196.562 156.254 176.408 176.408C156.254 196.562 146.177 221.092 146.177 250C146.177 278.908 156.254 303.438 176.408 323.592C196.562 343.746 221.092 353.823 250 353.823Z" fill="#881f61" fill-rule="nonzero" opacity="1" stroke="none" vectornator:layerName="path"/>
</g>
</svg>
