<?xml version="1.0" encoding="utf-8"?>
<!-- Generator: Adobe Illustrator 27.3.1, SVG Export Plug-In . SVG Version: 6.00 Build 0)  -->
<svg version="1.1" id="Layer_1" xmlns="http://www.w3.org/2000/svg" xmlns:xlink="http://www.w3.org/1999/xlink" x="0px" y="0px"
	 viewBox="0 0 500 500" style="enable-background:new 0 0 500 500;" xml:space="preserve">
<style type="text/css">
	.st0{fill:#B3528A;}
	.st1{fill:#881F61;}
</style>
<rect class="st0" width="500" height="500"/>
<g>
	<g>
		<path class="st1" d="M224.9,315.5c-6.2,0-11.8-1.1-16.4-3.4c-4.4-2.1-8.2-5.1-11.4-8.7c-1.6-1.9-3-3.5-4.3-5.1L171,274.5l-2.9,1.9
			v10.8c0,9.1-3.7,17.1-10.5,22.1c-5.5,4.2-12.1,6.2-19.8,6.2c-4.4,0-8.8-0.8-12.9-2.5c-4.9-1.9-8.7-4.9-11.7-8.6l-0.3-0.3l-0.1-0.4
			c-2.4-3.5-4-7.5-4.4-11.9c-0.3-2.3-0.4-5.1-0.4-8.8v-70.4c0-8.9,3.5-16.6,9.8-21.7c5.4-4.4,12.2-6.6,20.2-6.6
			c7.8,0,14.5,2.1,20,6.3c6.7,5.1,10.3,12.9,10.3,22v0.1l26.4-19.5c3.3-2.5,6.2-4.3,8.9-5.7c4.2-2.1,8.9-3.2,14.6-3.2
			c7.2,0,13.5,1.8,18.7,5.3c6.9,4.7,10.9,11.9,10.9,19.7c0,6-2.4,14.6-13.4,22.1l-16.2,11l23.7,24.2c3.5,3.5,6.1,6.6,8,9.5
			c3.2,4.8,4.8,9.8,4.8,15c0,7.7-4,14.7-11,19.3C238.6,313.9,232.3,315.5,224.9,315.5z"/>
	</g>
	<g>
		<path class="st1" d="M361.7,315.5c-8,0-14.7-2.2-20.2-6.7c-6.3-5.1-9.8-12.8-9.8-21.7V272h-24.9v15.2c0,9.1-3.7,16.9-10.3,22
			c-5.5,4.2-12.2,6.3-19.9,6.3c-8,0-14.7-2.2-20.2-6.7c-6.3-5.1-9.8-12.8-9.8-21.7v-74.5c0-8.9,3.5-16.6,9.8-21.6
			c5.4-4.4,12.2-6.6,20.2-6.6c7.8,0,14.5,2.1,20,6.3c6.7,5.1,10.3,12.9,10.3,22v10.5h24.9v-10.5c0-8.9,3.5-16.7,10-21.8
			c5.5-4.3,12.2-6.5,20-6.5s14.5,2.1,20,6.3c6.7,5.1,10.3,12.9,10.3,22v74.6c0,9.1-3.7,16.9-10.3,22
			C376,313.5,369.4,315.5,361.7,315.5z"/>
	</g>
</g>
<g>
	<path class="st0" d="M224.9,302.4c-4.2,0-7.8-0.7-10.7-2.1c-2.8-1.3-5.2-3.2-7.1-5.4c-1.6-1.9-3-3.6-4.4-5.1l-29.7-32.6L155,269.5
		v17.7c0,5.1-1.7,9-5.2,11.6c-3.1,2.4-7.1,3.5-11.9,3.5c-2.8,0-5.4-0.6-7.9-1.5c-2.7-1.1-4.8-2.6-6.3-4.6l-0.1-0.1l-0.1-0.1
		c-1.2-1.7-1.9-3.6-2.1-5.8c-0.2-1.7-0.3-4.2-0.3-7.3v-70.4c0-5,1.7-8.8,4.9-11.4c3-2.4,7-3.7,11.9-3.7c4.8,0,8.8,1.2,11.9,3.6
		c3.4,2.6,5.1,6.4,5.1,11.5V239l47.5-35.2c2.7-2,5-3.5,7-4.5c2.3-1.2,5.1-1.7,8.7-1.7c4.6,0,8.4,1,11.4,3c4.2,2.8,5.1,6.4,5.1,8.8
		c0,4-2.6,7.8-7.6,11.2l-29.3,19.8l34.9,35.5c2.8,2.8,4.9,5.3,6.4,7.5c1.7,2.6,2.6,5.2,2.6,7.8c0,2.3-0.9,5.6-5.1,8.4
		C233.4,301.4,229.6,302.4,224.9,302.4z"/>
</g>
<g>
	<path class="st0" d="M361.7,302.4c-4.9,0-8.9-1.2-11.9-3.7c-3.3-2.6-4.9-6.5-4.9-11.4v-28.3h-51.2v28.3c0,5.1-1.7,8.9-5.2,11.5
		c-3.1,2.4-7.1,3.6-11.9,3.6c-4.9,0-8.9-1.2-11.9-3.7c-3.3-2.6-4.9-6.5-4.9-11.4v-74.4c0-5,1.7-8.8,4.9-11.4c3-2.4,7-3.7,11.9-3.7
		c4.8,0,8.8,1.2,11.9,3.6c3.4,2.6,5.1,6.4,5.1,11.5v23.6h51.2v-23.6c0-5,1.7-8.8,5-11.4c3-2.4,7.1-3.7,11.9-3.7
		c4.8,0,8.8,1.2,11.9,3.6c3.4,2.6,5.1,6.4,5.1,11.5v74.6c0,5.1-1.7,8.9-5.2,11.5C370.4,301.2,366.4,302.4,361.7,302.4z"/>
</g>
</svg>
