<?xml version="1.0" encoding="UTF-8" standalone="no"?>
<!DOCTYPE svg PUBLIC "-//W3C//DTD SVG 1.1//EN" "http://www.w3.org/Graphics/SVG/1.1/DTD/svg11.dtd">
<!-- Created with Vectornator (http://vectornator.io/) -->
<svg height="100%" stroke-miterlimit="10" style="fill-rule:nonzero;clip-rule:evenodd;stroke-linecap:round;stroke-linejoin:round;" version="1.1" viewBox="0 0 500 500" width="100%" xml:space="preserve" xmlns="http://www.w3.org/2000/svg" xmlns:vectornator="http://vectornator.io" xmlns:xlink="http://www.w3.org/1999/xlink">
<defs/>
<g id="Untitled" vectornator:layerName="Untitled">
<path d="M0 0L500 0L500 0L500 500L500 500L0 500L0 500L0 0L0 0Z" fill="#b3528a" fill-rule="nonzero" opacity="1" stroke="none" vectornator:layerName="rect"/>
<path d="M236.712 262.979L236.712 236.403L262.979 236.403L262.979 262.979L236.712 262.979ZM210.136 289.555L210.136 262.979L236.712 262.979L236.712 289.555L210.136 289.555ZM262.979 289.555L262.979 262.979L289.555 262.979L289.555 289.555L262.979 289.555ZM289.555 262.979L289.555 236.403L316.131 236.403L316.131 262.979L289.555 262.979ZM183.869 262.979L183.869 236.403L210.136 236.403L210.136 262.979L183.869 262.979ZM157.292 361.249C152.142 361.249 147.764 359.447 144.159 355.841C140.553 352.236 138.751 347.858 138.751 342.708L138.751 157.292C138.751 152.142 140.553 147.764 144.159 144.159C147.764 140.553 152.142 138.751 157.292 138.751L342.708 138.751C347.858 138.751 352.236 140.553 355.841 144.159C359.447 147.764 361.249 152.142 361.249 157.292L361.249 342.708C361.249 347.858 359.447 352.236 355.841 355.841C352.236 359.447 347.858 361.249 342.708 361.249L157.292 361.249ZM183.869 342.708L210.136 342.708L210.136 316.131L183.869 316.131L183.869 342.708ZM236.712 342.708L262.979 342.708L262.979 316.131L236.712 316.131L236.712 342.708ZM342.708 342.708L342.708 316.131L342.708 342.708ZM157.292 316.131L183.869 316.131L183.869 289.555L210.136 289.555L210.136 316.131L236.712 316.131L236.712 289.555L262.979 289.555L262.979 316.131L289.555 316.131L289.555 289.555L316.131 289.555L316.131 316.131L342.708 316.131L342.708 289.555L316.131 289.555L316.131 262.979L342.708 262.979L342.708 157.292L157.292 157.292L157.292 262.979L183.869 262.979L183.869 289.555L157.292 289.555L157.292 316.131ZM157.292 342.708L157.292 157.292L157.292 342.708ZM342.708 262.979L342.708 289.555L342.708 262.979ZM289.555 316.131L289.555 342.708L316.131 342.708L316.131 316.131L289.555 316.131Z" fill="#881f61" fill-rule="nonzero" opacity="1" stroke="none" vectornator:layerName="path"/>
</g>
</svg>
