<?xml version="1.0" encoding="UTF-8" standalone="no"?>
<!DOCTYPE svg PUBLIC "-//W3C//DTD SVG 1.1//EN" "http://www.w3.org/Graphics/SVG/1.1/DTD/svg11.dtd">
<!-- Created with Vectornator (http://vectornator.io/) -->
<svg height="100%" stroke-miterlimit="10" style="fill-rule:nonzero;clip-rule:evenodd;stroke-linecap:round;stroke-linejoin:round;" version="1.1" viewBox="0 0 500 500" width="100%" xml:space="preserve" xmlns="http://www.w3.org/2000/svg" xmlns:vectornator="http://vectornator.io" xmlns:xlink="http://www.w3.org/1999/xlink">
<defs/>
<g id="Untitled" vectornator:layerName="Untitled">
<path d="M0 0L500 0L500 0L500 500L500 500L0 500L0 500L0 0L0 0Z" fill="#b3528a" fill-rule="nonzero" opacity="1" stroke="none" vectornator:layerName="rect"/>
<path d="M290.202 235.406C294.424 235.406 297.957 233.938 300.803 231.001C303.648 228.063 305.071 224.576 305.071 220.537C305.071 216.315 303.648 212.781 300.803 209.936C297.957 207.091 294.424 205.668 290.202 205.668C286.163 205.668 282.675 207.091 279.738 209.936C276.801 212.781 275.333 216.315 275.333 220.537C275.333 224.576 276.801 228.063 279.738 231.001C282.675 233.938 286.163 235.406 290.202 235.406ZM209.798 235.406C214.02 235.406 217.554 233.938 220.399 231.001C223.245 228.063 224.667 224.576 224.667 220.537C224.667 216.315 223.245 212.781 220.399 209.936C217.554 207.091 214.02 205.668 209.798 205.668C205.76 205.668 202.272 207.091 199.335 209.936C196.398 212.781 194.929 216.315 194.929 220.537C194.929 224.576 196.398 228.063 199.335 231.001C202.272 233.938 205.76 235.406 209.798 235.406ZM250 310.303C262.116 310.303 273.267 307.044 283.456 300.527C293.644 294.011 301.032 285.154 305.621 273.956L291.303 273.956C287.081 281.299 281.299 286.943 273.956 290.89C266.613 294.837 258.72 296.81 250.275 296.81C241.648 296.81 233.616 294.883 226.182 291.028C218.747 287.173 213.011 281.482 208.972 273.956L194.379 273.956C199.151 285.154 206.586 294.011 216.682 300.527C226.778 307.044 237.884 310.303 250 310.303ZM250 360.142C234.764 360.142 220.445 357.25 207.045 351.468C193.644 345.685 181.988 337.838 172.075 327.925C162.162 318.012 154.315 306.356 148.532 292.955C142.75 279.555 139.858 265.236 139.858 250C139.858 234.764 142.75 220.445 148.532 207.045C154.315 193.644 162.162 181.988 172.075 172.075C181.988 162.162 193.644 154.315 207.045 148.532C220.445 142.75 234.764 139.858 250 139.858C265.236 139.858 279.555 142.75 292.955 148.532C306.356 154.315 318.012 162.162 327.925 172.075C337.838 181.988 345.685 193.644 351.468 207.045C357.25 220.445 360.142 234.764 360.142 250C360.142 265.236 357.25 279.555 351.468 292.955C345.685 306.356 337.838 318.012 327.925 327.925C318.012 337.838 306.356 345.685 292.955 351.468C279.555 357.25 265.236 360.142 250 360.142ZM250 343.62C276.067 343.62 298.187 334.534 316.36 316.36C334.534 298.187 343.62 276.067 343.62 250C343.62 223.933 334.534 201.813 316.36 183.64C298.187 165.466 276.067 156.38 250 156.38C223.933 156.38 201.813 165.466 183.64 183.64C165.466 201.813 156.38 223.933 156.38 250C156.38 276.067 165.466 298.187 183.64 316.36C201.813 334.534 223.933 343.62 250 343.62Z" fill="#881f61" fill-rule="nonzero" opacity="1" stroke="none" vectornator:layerName="path"/>
</g>
</svg>
