<?xml version="1.0" encoding="utf-8"?>
<!-- Generator: Adobe Illustrator 27.2.0, SVG Export Plug-In . SVG Version: 6.00 Build 0)  -->
<svg version="1.1" id="Layer_1" xmlns="http://www.w3.org/2000/svg" xmlns:xlink="http://www.w3.org/1999/xlink" x="0px" y="0px"
	 viewBox="0 0 409.7 189.2" style="enable-background:new 0 0 409.7 189.2;" xml:space="preserve">
<style type="text/css">
	.st0{fill:#FFFFFF;}
	.st1{fill:#EC008C;}
</style>
<g>
	<path d="M168.8,189.2c-9,0-17-1.6-23.7-4.9c-6.4-3.1-11.9-7.3-16.4-12.5c-2.3-2.7-4.4-5.1-6.2-7.4L91,130l-4.2,2.8v15.6
		c0,13.2-5.3,24.6-15.1,31.9c-7.9,6-17.5,9-28.6,9c-6.4,0-12.7-1.2-18.6-3.6c-7-2.8-12.6-7-16.9-12.4l-0.4-0.5L7,172.2
		c-3.5-5.1-5.7-10.8-6.4-17.2c-0.4-3.3-0.6-7.3-0.6-12.7V40.8C0,28,5,16.9,14.1,9.5C21.9,3.2,31.7,0,43.2,0C54.5,0,64.1,3,72,9.1
		c9.6,7.3,14.9,18.6,14.9,31.7V41l38.1-28.2c4.8-3.6,9-6.2,12.8-8.2c6-3.1,12.9-4.6,21.1-4.6c10.4,0,19.5,2.6,27,7.6
		c10,6.8,15.7,17.1,15.7,28.4c0,8.6-3.4,21-19.3,31.9l-23.4,15.8l34.2,34.9c5,5,8.8,9.5,11.6,13.7c4.6,6.9,6.9,14.2,6.9,21.7
		c0,11.1-5.7,21.2-15.8,27.9C188.5,186.8,179.4,189.2,168.8,189.2z"/>
</g>
<g>
	<path d="M366.1,189.2c-11.5,0-21.2-3.2-29.1-9.6c-9.1-7.4-14.1-18.5-14.1-31.3v-21.9h-35.9v21.9c0,13.1-5.3,24.4-14.9,31.8
		c-7.9,6-17.6,9.1-28.7,9.1c-11.5,0-21.2-3.2-29.1-9.6c-9.1-7.4-14.1-18.5-14.1-31.3V40.8c0-12.8,5-23.9,14.1-31.2
		c7.8-6.3,17.6-9.5,29.2-9.5c11.2,0,20.9,3,28.8,9.1c9.6,7.3,14.9,18.6,14.9,31.7v15.1h35.9V40.8c0-12.9,5.1-24.1,14.4-31.4
		c7.9-6.2,17.6-9.4,28.8-9.4c11.2,0,20.9,3,28.8,9.1c9.6,7.3,14.9,18.6,14.9,31.7v107.6c0,13.1-5.3,24.4-14.9,31.8
		C386.8,186.2,377.2,189.2,366.1,189.2z"/>
</g>
<g>
	<path class="st0" d="M168.8,170.2c-6.1,0-11.3-1-15.4-3c-4-1.9-7.5-4.6-10.2-7.8c-2.3-2.7-4.4-5.2-6.3-7.4L94,105l-26.1,17.8v25.6
		c0,7.3-2.5,13-7.5,16.7c-4.5,3.4-10.3,5.1-17.2,5.1c-4,0-7.8-0.8-11.4-2.2c-3.9-1.6-6.9-3.8-9.1-6.6l-0.1-0.1l-0.1-0.1
		c-1.7-2.4-2.8-5.2-3.1-8.4c-0.3-2.5-0.4-6-0.4-10.5V40.8c0-7.2,2.4-12.7,7-16.5c4.3-3.5,10.1-5.3,17.2-5.3c6.9,0,12.7,1.7,17.2,5.2
		c4.9,3.8,7.4,9.3,7.4,16.6v38L136.3,28c3.9-2.9,7.2-5.1,10.1-6.5c3.3-1.7,7.4-2.5,12.5-2.5c6.6,0,12.1,1.5,16.4,4.4
		c6.1,4.1,7.4,9.2,7.4,12.7c0,5.8-3.7,11.2-11,16.1l-42.3,28.5l50.3,51.2c4.1,4.1,7.1,7.6,9.2,10.8c2.5,3.7,3.7,7.5,3.7,11.2
		c0,3.3-1.3,8.1-7.3,12.1C181.1,168.8,175.6,170.2,168.8,170.2z"/>
</g>
<g>
	<path class="st1" d="M366.1,170.2c-7,0-12.8-1.8-17.2-5.4c-4.7-3.8-7.1-9.4-7.1-16.5v-40.9h-73.9v40.9c0,7.3-2.5,12.9-7.5,16.6
		c-4.5,3.5-10.3,5.2-17.2,5.2c-7,0-12.8-1.8-17.2-5.4c-4.7-3.8-7.1-9.4-7.1-16.5V40.8c0-7.2,2.4-12.7,7-16.5
		c4.3-3.5,10.1-5.3,17.2-5.3c6.9,0,12.7,1.7,17.2,5.2c4.9,3.8,7.4,9.3,7.4,16.6v34.1h73.9V40.8c0-7.2,2.4-12.7,7.2-16.5
		c4.4-3.5,10.2-5.3,17.1-5.3c6.9,0,12.7,1.7,17.2,5.2c4.9,3.8,7.4,9.3,7.4,16.6v107.6c0,7.3-2.5,12.9-7.5,16.6
		C378.7,168.5,372.9,170.2,366.1,170.2z"/>
</g>
</svg>
